HIERARCHY
ROOT Hips
{
  OFFSET -35.2597 29.1586 114.425
  CHANNELS 6 Xposition Yposition Zposition Zrotation Xrotation Yrotation
  JOINT LeftUpLeg
  {
    OFFSET 8.64259 1.95398 -2.38835
    CHANNELS 3 Zrotation Xrotation Yrotation
    JOINT LeftLeg
    {
      OFFSET 43.7702 0 0
      CHANNELS 3 Zrotation Xrotation Yrotation
      JOINT LeftFoot
      {
        OFFSET 40.6238 0 0
        CHANNELS 3 Zrotation Xrotation Yrotation
        JOINT LeftToeBase
        {
          OFFSET 12.7242 0 0
          CHANNELS 3 Zrotation Xrotation Yrotation
          End Site
          {
            OFFSET 0 0 0
          }
        }
      }
    }
  }
  JOINT RightUpLeg
  {
    OFFSET -8.2249 1.95398 -2.59336
    CHANNELS 3 Zrotation Xrotation Yrotation
    JOINT RightLeg
    {
      OFFSET 43.5653 0 0
      CHANNELS 3 Zrotation Xrotation Yrotation
      JOINT RightFoot
      {
        OFFSET 40.6238 0 0
        CHANNELS 3 Zrotation Xrotation Yrotation
        JOINT RightToeBase
        {
          OFFSET 12.7242 0 0
          CHANNELS 3 Zrotation Xrotation Yrotation
          End Site
          {
            OFFSET 0 0 0
          }
        }
      }
    }
  }
  JOINT Spine
  {
    OFFSET 0.165834 0.87714 6.61349
    CHANNELS 3 Zrotation Xrotation Yrotation
    JOINT Spine1
    {
      OFFSET 7.38963 1.71661e-005 0
      CHANNELS 3 Zrotation Xrotation Yrotation
      JOINT Spine2
      {
        OFFSET 11.9445 1.14441e-005 0
        CHANNELS 3 Zrotation Xrotation Yrotation
        JOINT Spine3
        {
          OFFSET 14.7254 4.19617e-005 0
          CHANNELS 3 Zrotation Xrotation Yrotation
          JOINT Spine4
          {
            OFFSET 10.9679 0 0
            CHANNELS 3 Zrotation Xrotation Yrotation
            JOINT RightShoulder
            {
              OFFSET 2.46616 -1.6653 3.69651
              CHANNELS 3 Zrotation Xrotation Yrotation
              JOINT RightArm
              {
                OFFSET 13.0012 0 0
                CHANNELS 3 Zrotation Xrotation Yrotation
                JOINT RightForeArm
                {
                  OFFSET 28.7848 1.62311e-005 0
                  CHANNELS 3 Zrotation Xrotation Yrotation
                  JOINT RightHand
                  {
                    OFFSET 26.5688 1.62095e-005 0
                    CHANNELS 3 Zrotation Xrotation Yrotation
                    End Site
                    {
                      OFFSET 0 0 0
                    }
                  }
                }
              }
            }
            JOINT LeftShoulder
            {
              OFFSET 2.38034 -1.29275 -3.7523
              CHANNELS 3 Zrotation Xrotation Yrotation
              JOINT LeftArm
              {
                OFFSET 16.3182 6.07031e-005 0
                CHANNELS 3 Zrotation Xrotation Yrotation
                JOINT LeftForeArm
                {
                  OFFSET 27.0901 0 0
                  CHANNELS 3 Zrotation Xrotation Yrotation
                  JOINT LeftHand
                  {
                    OFFSET 24.5451 1.51738e-005 0
                    CHANNELS 3 Zrotation Xrotation Yrotation
                    End Site
                    {
                      OFFSET 0 0 0
                    }
                  }
                }
              }
            }
            JOINT Neck
            {
              OFFSET 5.0226 -0.0266342 0
              CHANNELS 3 Zrotation Xrotation Yrotation
              JOINT Head
              {
                OFFSET 6.69364 2.86102e-005 0
                CHANNELS 3 Zrotation Xrotation Yrotation
                End Site
                {
                  OFFSET 0 0 0
                }
              }
            }
          }
        }
      }
    }
  }
}
MOTION
Frames:	12
Frame Time:	0.0416667
18.6102 94.0646 39.529 83.8222 -47.6746 89.1233 -167.268 -2.74029 88.7713 -76.5213 1.1214 0.193456 52.6015 -6.00851 3.7544 20.4316 0.130626 -7.64695 179.623 34.3836 97.1479 -31.8167 -15.2286 -0.0690872 64.5835 -2.62851 -0.00962486 21.8363 1.64442 3.68611 -0.725285 7.76499 -91.178 11.3209 -1.99217 -2.14709 -0.350165 -2.08474 -2.05736 -22.8769 -1.25504 -2.6463 -2.86423 -1.25505 -2.6463 88.2279 -30.8323 -109.897 28.6124 8.84362 3.29442 -9.8997 -2.29292 -75.3013 -12.4414 2.90083 -32.825 -89.5436 -54.4052 80.2852 -16.749 -18.4071 -74.6698 173.899 71.7326 -175.019 7.93112 -11.2875 -99.1654 14.1309 9.44601 3.83328 -7.98782 8.07172 2.28707 
23.7479 92.7656 44.4703 84.894 -46.6587 89.2644 -164.649 4.00515 88.6835 -87.6682 -6.06923 1.54744 56.4466 -2.72132 5.95966 17.9552 -1.05287 -7.46778 178.051 35.3886 96.9137 -42.909 -17.6886 -0.00982022 67.4934 -4.66239 -2.88272 10.6889 4.12229 8.07539 -0.462165 7.84612 -91.0729 11.1649 -1.41844 -1.99725 -0.506762 -1.50495 -1.93292 -23.0317 -0.752778 -2.33105 -3.0191 -0.752798 -2.33105 88.2833 -29.4674 -110.377 28.0184 9.98892 1.04382 -8.8253 -2.00563 -74.8154 -13.9156 3.06546 -31.1585 -90.0541 -55.4811 79.7683 -16.9617 -18.1214 -75.0272 121.354 87.3437 -122.461 0.456813 -3.54655 -103.035 13.912 8.30814 5.07735 -6.30774 6.72951 1.00547 
28.3687 91.0107 49.1037 84.6068 -45.9366 90.6829 -163.642 14.5722 90.4124 -99.1067 -6.53913 3.3382 58.9128 -0.613715 7.62136 14.9582 -2.01567 -8.05452 176.985 34.9352 99.0286 -51.0768 -14.8368 0.241713 73.8786 -9.91752 -2.87318 21.2915 1.583 4.48026 -0.0500783 7.95248 -91.2168 10.956 -0.662911 -2.35789 -0.716905 -0.766005 -2.32646 -23.2349 0.0761593 -2.44808 -3.22223 0.0761463 -2.44808 88.396 -28.6067 -110.53 27.099 11.9527 -2.09163 -7.88623 -1.74473 -74.3547 -13.9647 2.87324 -29.4192 -90.357 -56.4317 79.5296 -17.5472 -17.2694 -75.0708 6.42193 65.6311 -7.50982 -10.7111 9.07817 -100.121 15.7619 7.07631 5.63224 -5.25271 5.29977 0.787213 
32.7624 90.1625 53.9363 84.5205 -44.2448 92.6606 -166.091 25.7205 91.3793 -107.666 1.9816 4.38852 59.7376 0.882312 11.7409 11.4757 -3.00856 -8.95988 174.687 31.145 100.981 -53.7962 -13.5927 1.48238 79.5044 -14.448 -3.92272 20.9702 0.618068 7.40277 0.258921 8.05726 -91.3725 10.75 -0.11729 -2.71843 -0.923798 -0.236754 -2.71065 -23.4372 0.704856 -2.62815 -3.42452 0.704859 -2.62814 88.1738 -28.753 -110.906 26.8595 12.1748 -4.5203 -1.56516 0.282424 -75.9612 -17.7907 2.68931 -23.0739 -90.5489 -55.5988 79.0963 -18.8144 -15.5367 -71.9291 3.12123 31.1069 -4.17013 -21.7089 15.7295 -77.7487 18.2008 5.61658 4.79616 -5.50808 3.9721 1.14038 
37.977 89.6838 59.3292 85.0292 -41.6167 92.4074 -169.936 33.657 90.2793 -111.115 7.85498 4.61632 63.2388 3.82262 12.8432 11.509 -2.2005 -10.1364 173.422 25.2498 99.8025 -54.6073 -12.3947 2.05363 84.4562 -17.7524 -2.73266 24.5048 0.315284 4.49321 0.330698 8.16626 -91.3396 10.5342 0.0437352 -2.66607 -1.13949 -0.0736112 -2.66542 -23.6543 0.842714 -2.52985 -3.64167 0.842708 -2.52985 88.5337 -26.39 -111.268 25.8165 15.0589 -7.24977 -3.78675 -0.406654 -71.9296 -15.1271 2.61985 -25.668 -89.6786 -56.1602 80.4252 -21.261 -12.1489 -71.732 2.50843 11.2386 -3.55651 -25.6864 12.0252 -58.8051 20.3945 4.77015 6.25902 -6.69459 2.6599 -0.586063 
43.4451 89.3618 65.0638 85.705 -38.678 91.2749 -173.104 39.8851 88.2701 -110.395 9.01537 4.62339 67.6598 6.57759 11.9179 16.35 0.143125 -10.5577 172.809 17.8484 98.2666 -53.1141 -9.18639 2.22377 89.1458 -21.6893 -3.23368 25.5623 -0.619445 6.14621 0.442953 8.19381 -91.1045 10.4855 0.375435 -2.22871 -1.18728 0.277016 -2.24307 -23.7099 1.02776 -2.013 -3.69724 1.02777 -2.01301 88.2742 -26.8049 -111.606 24.9204 17.2087 -7.97678 -3.11733 -0.135631 -69.2815 -14.8625 2.70303 -26.6861 -89.3741 -54.759 80.5933 -24.264 -7.98677 -71.6472 2.30129 1.84905 -3.33749 -20.4293 6.63283 -45.4083 20.2185 2.53839 5.4499 -6.26031 0.787406 -1.13467 
49.0766 89.962 70.9698 84.741 -37.0973 87.865 -172.158 45.3947 83.9179 -104.754 6.97463 4.20132 70.9987 8.47247 10.4748 22.4377 0.227483 -6.26124 172.013 11.749 95.3699 -49.6741 -11.2175 2.21368 87.2264 -21.1444 -5.66707 30.2545 -1.9524 4.75175 0.609426 8.01985 -90.6696 10.8391 0.904142 -1.41872 -0.832371 0.840845 -1.45714 -23.3661 1.28869 -1.08145 -3.35346 1.28871 -1.08144 87.201 -28.6566 -112.889 24.2329 18.7041 -6.88401 -1.27287 0.706386 -68.2441 -15.1459 2.61367 -25.6166 -89.0075 -55.0117 81.1595 -26.0453 -5.51386 -71.4573 2.26029 -0.205859 -3.29323 -19.4264 5.31226 -39.7267 18.8103 0.360643 4.00479 -5.58635 -0.794636 -1.61775 
55.1504 91.131 77.2654 84.8823 -36.3941 85.6728 -170.354 47.6724 80.539 -96.0821 4.89652 3.29094 74.6619 10.3984 9.08622 23.7223 -0.189536 -4.37737 172.122 3.28802 95.1923 -43.8808 -12.8276 1.71556 80.6142 -17.1736 -9.15853 36.5139 -4.56521 6.4994 0.851687 7.93025 -90.2628 11.0185 1.57374 -0.673151 -0.651658 1.54261 -0.741786 -23.1943 1.70328 -0.168932 -3.18166 1.70328 -0.168938 86.5536 -30.3746 -113.338 24.3759 18.1127 -6.23184 2.21961 2.49773 -66.527 -17.2245 3.01266 -25.6552 -88.2094 -54.7894 82.2552 -27.8291 -3.22021 -70.4425 2.27414 0.507195 -3.30787 -15.3196 3.54984 -35.0456 17.9076 -1.73625 1.48072 -6.01741 -2.08477 -0.779568 
61.5327 92.6278 83.8762 86.5582 -36.2227 85.0027 -169.763 47.1612 79.2144 -85.3707 4.15388 1.82276 76.725 11.16 7.3578 25.8599 0.707459 -4.23344 173.293 -4.85253 92.9997 -36.4075 -10.9206 0.440007 72.0736 -9.9873 -8.03778 41.2148 -6.77035 10.3917 1.14411 7.95991 -89.9143 10.9564 2.31746 -0.0495591 -0.712472 2.31303 -0.151572 -23.2633 2.22515 0.649577 -3.25066 2.22515 0.64957 85.3054 -32.3386 -114.772 23.2859 19.6674 -3.93613 0.699333 2.07902 -62.9805 -15.2463 3.22518 -30.0383 -87.4103 -54.0732 83.2806 -29.365 -1.60796 -68.455 2.32961 3.26824 -3.36676 -13.7566 2.99025 -34.5659 16.9033 -3.65042 0.146795 -6.91703 -3.47731 -2.07517 
68.2498 94.3224 90.7382 86.6483 -36.4717 83.2064 -169.577 45.732 78.359 -72.1379 4.46458 -0.386603 78.365 12.1058 5.51638 24.8523 0.0137707 -3.77107 174.444 -11.728 91.8699 -29.5085 -12.4123 -1.51278 61.2981 -0.890934 -4.91751 38.1106 -5.77015 10.2007 1.57653 7.82877 -89.502 11.2081 3.36927 0.660382 -0.458527 3.39507 0.511283 -23.0218 3.01489 1.64327 -3.00913 3.01492 1.64328 84.5215 -34.4103 -115.232 23.8916 18.5869 0.0940052 5.90136 4.85211 -64.0528 -18.1795 3.7674 -29.282 -87.1148 -52.2982 83.4279 -30.997 -0.139754 -65.9047 2.39647 6.41851 -3.43733 -15.0211 3.38164 -34.9133 16.6943 -6.35309 -2.72722 -9.52526 -5.2322 -2.20624 
75.2636 95.5298 97.5924 85.3978 -35.6495 80.3738 -170.876 44.1498 77.2029 -57.4157 4.40723 -2.56677 78.247 11.8922 3.05957 26.8639 0.251788 -2.39776 174.557 -15.962 90.932 -26.3569 -13.9046 -2.86781 55.8163 3.91749 -1.72791 18.3134 1.78049 7.05819 1.83326 7.64326 -89.14 11.572 4.04963 1.29462 -0.0930912 4.10265 1.11487 -22.6629 3.47322 2.4529 -2.65028 3.47323 2.45289 84.2308 -33.8717 -116.014 23.6766 18.7343 4.80748 6.74323 5.54831 -63.0971 -18.4039 4.37083 -32.6852 -86.7535 -50.8885 83.734 -32.0788 0.736582 -64.1839 2.47227 9.72841 -3.51729 -15.9173 3.85367 -36.7724 17.5208 -8.16879 -2.6228 -12.716 -6.73237 -4.48958 
82.0077 96.051 104.163 84.0348 -34.4576 78.609 -172.486 42.7727 77.1698 -43.2002 6.76304 -4.22592 75.5376 10.0726 0.989301 27.2248 -0.367834 -0.809957 174.464 -18.3745 91.2944 -27.9797 -16.5514 -2.98491 56.8998 3.54751 -1.94162 15.6307 2.56871 7.451 2.03952 7.57495 -88.9059 11.6929 4.56986 1.70258 0.0291541 4.64036 1.49943 -22.5459 3.84688 2.99856 -2.53328 3.84686 2.99856 84.8492 -34.2029 -114.733 24.9954 16.8098 5.53063 14.4754 9.14482 -65.7253 -22.5001 5.09738 -31.2745 -86.6711 -48.6748 83.5086 -32.587 1.4197 -64.2978 2.51113 11.3555 -3.55776 -16.9829 4.50546 -39.0616 18.3249 -9.8046 -2.97873 -13.2464 -8.0544 -5.67255 
